<svg xmlns="http://www.w3.org/2000/svg" xmlns:xlink="http://www.w3.org/1999/xlink" width="250" zoomAndPan="magnify" viewBox="0 0 187.5 46.499999" height="62" preserveAspectRatio="xMidYMid meet" version="1.0"><defs><g/></defs><g fill="#ffffff" fill-opacity="1"><g transform="translate(4.164843, 36.260091)"><g><path d="M 4.03125 0 L 4.03125 -31.078125 L 10.1875 -31.078125 L 10.1875 -18.390625 L 10.859375 -18.390625 L 21.234375 -31.078125 L 27.53125 -31.078125 L 27.53125 -30.546875 L 16.09375 -16.40625 L 28.71875 -0.53125 L 28.71875 0 L 21.765625 0 L 10.859375 -13.40625 L 10.1875 -13.40625 L 10.1875 0 Z M 4.03125 0 "/></g></g></g><g fill="#ffffff" fill-opacity="1"><g transform="translate(32.876352, 36.260091)"><g><path d="M 29.828125 0 L 23.359375 0 L 21.015625 -7.15625 L 9.125 -7.15625 L 6.78125 0 L 0.46875 0 L 11.203125 -31.078125 L 19.09375 -31.078125 Z M 14.765625 -24.59375 L 10.78125 -12.328125 L 19.328125 -12.328125 L 15.296875 -24.59375 Z M 14.765625 -24.59375 "/></g></g></g><g fill="#ffffff" fill-opacity="1"><g transform="translate(63.160512, 36.260091)"><g><path d="M 4.03125 0 L 4.03125 -31.078125 L 16.515625 -31.078125 C 19.734375 -31.078125 22.160156 -30.335938 23.796875 -28.859375 C 25.429688 -27.378906 26.25 -25.332031 26.25 -22.71875 C 26.25 -20.832031 25.769531 -19.285156 24.8125 -18.078125 C 23.851562 -16.878906 22.425781 -15.960938 20.53125 -15.328125 L 20.53125 -14.875 C 21.507812 -14.445312 22.300781 -13.816406 22.90625 -12.984375 C 23.507812 -12.148438 24.078125 -10.910156 24.609375 -9.265625 L 27.71875 0 L 21.40625 0 L 18.359375 -9.28125 C 18.046875 -10.21875 17.695312 -10.945312 17.3125 -11.46875 C 16.925781 -11.988281 16.429688 -12.363281 15.828125 -12.59375 C 15.222656 -12.820312 14.4375 -12.9375 13.46875 -12.9375 L 10.1875 -12.9375 L 10.1875 0 Z M 15.765625 -17.8125 C 18.742188 -17.8125 20.234375 -19.203125 20.234375 -21.984375 C 20.234375 -24.796875 18.742188 -26.203125 15.765625 -26.203125 L 10.1875 -26.203125 L 10.1875 -17.8125 Z M 15.765625 -17.8125 "/></g></g></g><g fill="#ffffff" fill-opacity="1"><g transform="translate(92.212053, 36.260091)"><g><path d="M 15.21875 -31.078125 C 20.257812 -31.078125 24.109375 -29.769531 26.765625 -27.15625 C 29.421875 -24.550781 30.75 -20.675781 30.75 -15.53125 C 30.75 -10.40625 29.421875 -6.535156 26.765625 -3.921875 C 24.109375 -1.304688 20.257812 0 15.21875 0 L 4.03125 0 L 4.03125 -31.078125 Z M 14.859375 -5.171875 C 18.054688 -5.171875 20.445312 -5.988281 22.03125 -7.625 C 23.625 -9.257812 24.421875 -11.894531 24.421875 -15.53125 C 24.421875 -19.175781 23.625 -21.816406 22.03125 -23.453125 C 20.445312 -25.085938 18.054688 -25.90625 14.859375 -25.90625 L 10.1875 -25.90625 L 10.1875 -5.171875 Z M 14.859375 -5.171875 "/></g></g></g><g fill="#ffffff" fill-opacity="1"><g transform="translate(125.428996, 36.260091)"><g><path d="M 10.1875 -13.640625 L 10.1875 -5.140625 L 25.015625 -5.140625 L 25.015625 0 L 4.03125 0 L 4.03125 -31.078125 L 24.671875 -31.078125 L 24.671875 -25.9375 L 10.1875 -25.9375 L 10.1875 -18.65625 L 22.84375 -18.65625 L 22.84375 -13.640625 Z M 10.1875 -13.640625 "/></g></g></g><g fill="#ffffff" fill-opacity="1"><g transform="translate(152.142813, 36.260091)"><g><path d="M 18.46875 0 L 11.046875 0 L 0.546875 -31.078125 L 7.078125 -31.078125 L 14.625 -7.90625 L 15.15625 -7.90625 L 22.59375 -31.078125 L 28.953125 -31.078125 Z M 18.46875 0 "/></g></g></g></svg>